P2
3 3
255
100 0 100
0 100 0
100 0 100
