P2
20 20
255
191 62 68 199 68 169 227 121 164 61 164 247 194 72 143 128 158 170 145 210 
81 245 192 158 154 172 144 92 177 246 231 165 154 54 171 217 197 184 50 109 
242 120 173 190 151 123 112 81 237 205 82 76 186 50 134 60 200 122 243 148 
185 105 224 182 210 80 237 176 217 99 66 144 130 90 106 110 208 251 149 248 
227 96 100 139 207 52 198 232 72 82 155 219 243 138 142 194 69 242 133 78 
52 110 124 181 216 156 74 254 181 130 112 173 223 87 133 166 125 73 102 152 
201 192 203 78 162 53 143 123 245 173 93 211 212 105 182 94 151 234 50 247 
242 219 241 127 224 144 122 153 244 87 61 117 167 135 133 74 187 137 105 65 
255 56 181 174 186 90 141 121 225 207 249 217 219 197 245 224 172 61 218 220 
117 113 244 90 109 127 168 175 183 243 165 212 139 189 82 147 221 230 72 235 
85 129 124 111 155 146 105 254 180 74 240 54 142 183 84 220 215 174 222 227 
243 93 218 203 226 239 70 207 53 147 249 128 150 173 239 57 226 54 235 59 
218 212 168 204 130 67 80 166 208 125 74 84 111 97 103 239 82 254 118 219 
136 175 136 231 205 215 117 60 183 145 86 230 112 176 116 253 73 70 212 253 
53 82 220 144 230 86 177 150 243 254 226 215 160 171 199 230 196 206 101 154 
190 251 57 248 183 223 212 217 182 71 182 174 193 222 127 83 253 174 165 169 
152 133 96 167 214 102 71 104 141 140 54 148 148 220 103 155 54 138 217 213 
103 97 62 93 50 129 210 200 118 54 177 229 240 52 74 104 230 251 97 233 
175 180 50 92 179 204 175 76 252 77 171 69 62 111 146 192 189 105 198 151 
72 140 100 221 51 216 92 182 198 209 166 242 147 145 130 89 202 186 190 177 
